<mxfile host="app.diagrams.net" modified="2021-05-26T15:11:57.766Z" agent="5.0 (Macintosh; Intel Mac OS X 10_15_7) AppleWebKit/537.36 (KHTML, like Gecko) Chrome/90.0.4430.212 Safari/537.36" etag="mHO67rcKsGwwzze0dNwS" version="14.6.13" type="github">
  <diagram id="AwUkkggqLwZgUsIdLyyE" name="Page-1">
    <mxGraphModel dx="946" dy="562" grid="1" gridSize="10" guides="1" tooltips="1" connect="1" arrows="1" fold="1" page="1" pageScale="1" pageWidth="827" pageHeight="1169" math="0" shadow="0">
      <root>
        <mxCell id="0" />
        <mxCell id="1" parent="0" />
        <mxCell id="EEjiSeWt_Q2X6Mg-Ht7t-3" value="" style="edgeStyle=orthogonalEdgeStyle;rounded=0;orthogonalLoop=1;jettySize=auto;html=1;" edge="1" parent="1" source="EEjiSeWt_Q2X6Mg-Ht7t-1" target="EEjiSeWt_Q2X6Mg-Ht7t-2">
          <mxGeometry relative="1" as="geometry" />
        </mxCell>
        <mxCell id="EEjiSeWt_Q2X6Mg-Ht7t-1" value="Start" style="rounded=1;whiteSpace=wrap;html=1;" vertex="1" parent="1">
          <mxGeometry x="354" y="90" width="120" height="60" as="geometry" />
        </mxCell>
        <mxCell id="EEjiSeWt_Q2X6Mg-Ht7t-5" value="" style="edgeStyle=orthogonalEdgeStyle;rounded=0;orthogonalLoop=1;jettySize=auto;html=1;" edge="1" parent="1" source="EEjiSeWt_Q2X6Mg-Ht7t-2" target="EEjiSeWt_Q2X6Mg-Ht7t-4">
          <mxGeometry relative="1" as="geometry" />
        </mxCell>
        <mxCell id="EEjiSeWt_Q2X6Mg-Ht7t-2" value="puzzle.jpg" style="shape=parallelogram;perimeter=parallelogramPerimeter;whiteSpace=wrap;html=1;fixedSize=1;" vertex="1" parent="1">
          <mxGeometry x="354" y="190" width="120" height="60" as="geometry" />
        </mxCell>
        <mxCell id="EEjiSeWt_Q2X6Mg-Ht7t-7" value="" style="edgeStyle=orthogonalEdgeStyle;rounded=0;orthogonalLoop=1;jettySize=auto;html=1;" edge="1" parent="1" source="EEjiSeWt_Q2X6Mg-Ht7t-4" target="EEjiSeWt_Q2X6Mg-Ht7t-6">
          <mxGeometry relative="1" as="geometry" />
        </mxCell>
        <mxCell id="EEjiSeWt_Q2X6Mg-Ht7t-4" value="Colour space conversion,&lt;br&gt;binarization,&lt;br&gt;edge smoothing" style="whiteSpace=wrap;html=1;" vertex="1" parent="1">
          <mxGeometry x="354" y="290" width="120" height="60" as="geometry" />
        </mxCell>
        <mxCell id="EEjiSeWt_Q2X6Mg-Ht7t-9" value="" style="edgeStyle=orthogonalEdgeStyle;rounded=0;orthogonalLoop=1;jettySize=auto;html=1;" edge="1" parent="1" source="EEjiSeWt_Q2X6Mg-Ht7t-6" target="EEjiSeWt_Q2X6Mg-Ht7t-8">
          <mxGeometry relative="1" as="geometry" />
        </mxCell>
        <mxCell id="EEjiSeWt_Q2X6Mg-Ht7t-6" value="Extract Pieces" style="shape=parallelogram;perimeter=parallelogramPerimeter;whiteSpace=wrap;html=1;fixedSize=1;" vertex="1" parent="1">
          <mxGeometry x="354" y="390" width="120" height="60" as="geometry" />
        </mxCell>
        <mxCell id="EEjiSeWt_Q2X6Mg-Ht7t-11" value="" style="edgeStyle=orthogonalEdgeStyle;rounded=0;orthogonalLoop=1;jettySize=auto;html=1;" edge="1" parent="1" source="EEjiSeWt_Q2X6Mg-Ht7t-8" target="EEjiSeWt_Q2X6Mg-Ht7t-10">
          <mxGeometry relative="1" as="geometry" />
        </mxCell>
        <mxCell id="EEjiSeWt_Q2X6Mg-Ht7t-13" value="" style="edgeStyle=orthogonalEdgeStyle;rounded=0;orthogonalLoop=1;jettySize=auto;html=1;" edge="1" parent="1" source="EEjiSeWt_Q2X6Mg-Ht7t-8" target="EEjiSeWt_Q2X6Mg-Ht7t-12">
          <mxGeometry relative="1" as="geometry" />
        </mxCell>
        <mxCell id="EEjiSeWt_Q2X6Mg-Ht7t-17" value="" style="edgeStyle=orthogonalEdgeStyle;rounded=0;orthogonalLoop=1;jettySize=auto;html=1;" edge="1" parent="1" source="EEjiSeWt_Q2X6Mg-Ht7t-8" target="EEjiSeWt_Q2X6Mg-Ht7t-16">
          <mxGeometry relative="1" as="geometry" />
        </mxCell>
        <mxCell id="EEjiSeWt_Q2X6Mg-Ht7t-8" value="Pieces expansion" style="whiteSpace=wrap;html=1;" vertex="1" parent="1">
          <mxGeometry x="354" y="490" width="120" height="60" as="geometry" />
        </mxCell>
        <mxCell id="EEjiSeWt_Q2X6Mg-Ht7t-23" style="edgeStyle=orthogonalEdgeStyle;rounded=0;orthogonalLoop=1;jettySize=auto;html=1;entryX=1;entryY=0.5;entryDx=0;entryDy=0;" edge="1" parent="1" source="EEjiSeWt_Q2X6Mg-Ht7t-10" target="EEjiSeWt_Q2X6Mg-Ht7t-18">
          <mxGeometry relative="1" as="geometry">
            <Array as="points">
              <mxPoint x="640" y="740" />
            </Array>
          </mxGeometry>
        </mxCell>
        <mxCell id="EEjiSeWt_Q2X6Mg-Ht7t-10" value="Convert to polar coordinates and find the four corners" style="whiteSpace=wrap;html=1;" vertex="1" parent="1">
          <mxGeometry x="554" y="490" width="120" height="60" as="geometry" />
        </mxCell>
        <mxCell id="EEjiSeWt_Q2X6Mg-Ht7t-22" style="edgeStyle=orthogonalEdgeStyle;rounded=0;orthogonalLoop=1;jettySize=auto;html=1;exitX=0.5;exitY=1;exitDx=0;exitDy=0;entryX=0;entryY=0.5;entryDx=0;entryDy=0;" edge="1" parent="1" source="EEjiSeWt_Q2X6Mg-Ht7t-12" target="EEjiSeWt_Q2X6Mg-Ht7t-18">
          <mxGeometry relative="1" as="geometry">
            <Array as="points">
              <mxPoint x="214" y="740" />
            </Array>
          </mxGeometry>
        </mxCell>
        <mxCell id="EEjiSeWt_Q2X6Mg-Ht7t-12" value="Rotated bounding rectangle" style="whiteSpace=wrap;html=1;" vertex="1" parent="1">
          <mxGeometry x="154" y="490" width="120" height="60" as="geometry" />
        </mxCell>
        <mxCell id="EEjiSeWt_Q2X6Mg-Ht7t-19" value="" style="edgeStyle=orthogonalEdgeStyle;rounded=0;orthogonalLoop=1;jettySize=auto;html=1;" edge="1" parent="1" source="EEjiSeWt_Q2X6Mg-Ht7t-16" target="EEjiSeWt_Q2X6Mg-Ht7t-18">
          <mxGeometry relative="1" as="geometry" />
        </mxCell>
        <mxCell id="EEjiSeWt_Q2X6Mg-Ht7t-16" value="Contour extraction, cropping filling" style="whiteSpace=wrap;html=1;" vertex="1" parent="1">
          <mxGeometry x="354" y="600" width="120" height="60" as="geometry" />
        </mxCell>
        <mxCell id="EEjiSeWt_Q2X6Mg-Ht7t-21" value="" style="edgeStyle=orthogonalEdgeStyle;rounded=0;orthogonalLoop=1;jettySize=auto;html=1;" edge="1" parent="1" source="EEjiSeWt_Q2X6Mg-Ht7t-18" target="EEjiSeWt_Q2X6Mg-Ht7t-20">
          <mxGeometry relative="1" as="geometry" />
        </mxCell>
        <mxCell id="EEjiSeWt_Q2X6Mg-Ht7t-18" value="Spinning&lt;br&gt;Cropping" style="shape=parallelogram;perimeter=parallelogramPerimeter;whiteSpace=wrap;html=1;fixedSize=1;" vertex="1" parent="1">
          <mxGeometry x="354" y="710" width="120" height="60" as="geometry" />
        </mxCell>
        <mxCell id="EEjiSeWt_Q2X6Mg-Ht7t-20" value="End" style="rounded=1;whiteSpace=wrap;html=1;" vertex="1" parent="1">
          <mxGeometry x="354" y="820" width="120" height="60" as="geometry" />
        </mxCell>
        <mxCell id="EEjiSeWt_Q2X6Mg-Ht7t-24" value="Method 1" style="rounded=0;whiteSpace=wrap;html=1;" vertex="1" parent="1">
          <mxGeometry x="270" y="440" width="80" height="40" as="geometry" />
        </mxCell>
        <mxCell id="EEjiSeWt_Q2X6Mg-Ht7t-25" value="Method 2" style="rounded=0;whiteSpace=wrap;html=1;" vertex="1" parent="1">
          <mxGeometry x="480" y="440" width="80" height="40" as="geometry" />
        </mxCell>
        <mxCell id="EEjiSeWt_Q2X6Mg-Ht7t-26" value="Method 3" style="rounded=0;whiteSpace=wrap;html=1;" vertex="1" parent="1">
          <mxGeometry x="500" y="560" width="80" height="40" as="geometry" />
        </mxCell>
        <mxCell id="EEjiSeWt_Q2X6Mg-Ht7t-28" value="" style="endArrow=none;dashed=1;html=1;dashPattern=1 3;strokeWidth=2;" edge="1" parent="1">
          <mxGeometry width="50" height="50" relative="1" as="geometry">
            <mxPoint x="310" y="520" as="sourcePoint" />
            <mxPoint x="310" y="480" as="targetPoint" />
          </mxGeometry>
        </mxCell>
        <mxCell id="EEjiSeWt_Q2X6Mg-Ht7t-29" value="" style="endArrow=none;dashed=1;html=1;dashPattern=1 3;strokeWidth=2;" edge="1" parent="1">
          <mxGeometry width="50" height="50" relative="1" as="geometry">
            <mxPoint x="523" y="520" as="sourcePoint" />
            <mxPoint x="523" y="480" as="targetPoint" />
          </mxGeometry>
        </mxCell>
        <mxCell id="EEjiSeWt_Q2X6Mg-Ht7t-30" value="" style="endArrow=none;dashed=1;html=1;dashPattern=1 3;strokeWidth=2;entryX=0;entryY=0.5;entryDx=0;entryDy=0;" edge="1" parent="1" target="EEjiSeWt_Q2X6Mg-Ht7t-26">
          <mxGeometry width="50" height="50" relative="1" as="geometry">
            <mxPoint x="414" y="580" as="sourcePoint" />
            <mxPoint x="464" y="530" as="targetPoint" />
          </mxGeometry>
        </mxCell>
      </root>
    </mxGraphModel>
  </diagram>
</mxfile>
